<?xml version="1.0" encoding="UTF-8" standalone="no"?>
<svg
   xmlns:dc="http://purl.org/dc/elements/1.1/"
   xmlns:cc="http://creativecommons.org/ns#"
   xmlns:rdf="http://www.w3.org/1999/02/22-rdf-syntax-ns#"
   xmlns:svg="http://www.w3.org/2000/svg"
   xmlns="http://www.w3.org/2000/svg"
   xmlns:xlink="http://www.w3.org/1999/xlink"
   xmlns:sodipodi="http://sodipodi.sourceforge.net/DTD/sodipodi-0.dtd"
   xmlns:inkscape="http://www.inkscape.org/namespaces/inkscape"
   version="1.0"
   width="38.000000pt"
   height="38.000000pt"
   viewBox="0 0 172.000000 172.000000"
   preserveAspectRatio="xMidYMid meet"
   id="svg861"
   sodipodi:docname="logo.svg"
   inkscape:version="0.92.3 (2405546, 2018-03-11)">
  <defs
     id="defs865">
    <style
       id="style1410">.cls-1{fill:url(#linear-gradient);}.cls-2{fill:none;}.cls-3{opacity:0.3;fill:url(#linear-gradient-2);}.cls-4{clip-path:url(#clip-path);}.cls-5{fill:#ff9e9e;}.cls-6{fill:#ffe690;}.cls-7{clip-path:url(#clip-path-2);}.cls-8{fill:url(#linear-gradient-5);}.cls-9{fill:url(#linear-gradient-6);}</style>
    <linearGradient
       gradientUnits="userSpaceOnUse"
       y2="188"
       x2="128"
       y1="28"
       x1="128"
       id="linear-gradient">
      <stop
         id="stop1412"
         stop-color="#914d36"
         offset="0" />
      <stop
         id="stop1414"
         stop-color="#513c35"
         offset="1" />
    </linearGradient>
    <linearGradient
       gradientUnits="userSpaceOnUse"
       y2="192"
       x2="132"
       y1="32"
       x1="132"
       id="linear-gradient-2">
      <stop
         id="stop1417"
         offset="0" />
      <stop
         id="stop1419"
         stop-color="#513c35"
         offset="1" />
    </linearGradient>
    <clipPath
       transform="translate(-12 -28)"
       id="clip-path">
      <path
         id="path1422"
         d="M96,71.44V172H32V140H64a16,16,0,0,0,16-16V92A16,16,0,0,0,64,76H32V44H72s8.5.5,8-8c.5-7.5-8-8-8-8H32A16,16,0,0,0,16,44V76A16,16,0,0,0,32,92H64v32H32a16,16,0,0,0-16,16v32a16,16,0,0,0,16,16H96a16,16,0,0,0,16-16V108h0a16,16,0,0,1,16-16h0a16,16,0,0,1,16,16h0v64h0a16,16,0,0,0,16,16h64a16,16,0,0,0,16-16V140a16,16,0,0,0-16-16H192V92h32a16,16,0,0,0,16-16V44a16,16,0,0,0-16-16H184s-8.5.5-8,8c-.5,8.5,8,8,8,8h40V76H192a16,16,0,0,0-16,16v32a16,16,0,0,0,16,16h32v32H160V60.67c0-17.44-13.67-32.18-31.1-32.66A32,32,0,0,0,96,60Z"
         class="cls-1" />
    </clipPath>
    <clipPath
       transform="translate(-12 -28)"
       id="clip-path-2">
      <path
         id="path1425"
         d="M37.84,238.05H24.59q-5.18,0-5.18-5.18V205.79q0-5.17,5.18-5.18H37c9,0,13.29,3.6,13.29,10.51,0,2.93-.91,5.19-3,6.43,2.88,1.4,4.75,4.8,4.75,8.41C52.05,234.26,47.49,238.05,37.84,238.05Zm-.57-29.38H27.71v5.72H38c3.07,0,4.08-1.11,4.08-3S40.77,208.67,37.27,208.67Zm.62,13.3H27.71v8H37.89c4,0,5.81-1.25,5.81-4S41.92,222,37.89,222Zm43.57,4.66H66.15c.1,2.59,3.22,5,6.24,5,3.22,0,5.47-1.25,6.1-2.45a2.52,2.52,0,0,1,2.35-1.2c2.06,0,4.51,1.49,4.51,3.55a3.21,3.21,0,0,1-.24,1.16c-1.53,3.64-5.71,6.24-12.86,6.24-8.69,0-14.31-6.53-14.31-15,0-9.65,6.15-15.36,14.4-15.36a13.68,13.68,0,0,1,14,13.34v.39C86.36,225,84.87,226.63,81.46,226.63Zm-9.07-10.95c-3.55,0-5.52,2-6.19,4.27H78.39A5.9,5.9,0,0,0,72.39,215.68Zm35.27,23.24c-1.92,0-4.9-.58-6.34-2v6.24c0,4.08-8,4.08-8,0V211.27c0-3.27,7.53-3.27,7.53,0,1-1.59,4.23-2.74,6.77-2.74,8,0,13.83,5.57,13.83,15.17S115.63,238.92,107.66,238.92Zm-.82-22.57c-3.16,0-5.76,2.64-5.76,7.35s2.55,7.39,5.76,7.39c4,0,6.58-2.59,6.58-7.39S110.83,216.35,106.84,216.35Zm22.26,19.16V203.3c0-4.32,8.5-4.32,8.5,0v32.21C137.6,239.68,129.1,239.68,129.1,235.51Zm39.64,3.12c-2,0-4-1.06-4-3.17V221.3c0-3-1.49-5-4.22-5-3.8,0-6,2.54-6,6.91v12.19c0,2.16-1.92,3.22-3.89,3.22s-4.08-1.15-4.08-3.36V212.08c0-2.11,1.88-3.21,3.75-3.21s3.65,1,3.65,3.21c1.1-2.21,4.37-3.55,6.86-3.55,7.78,0,11.86,3.89,11.86,12.62v14.31C172.73,237.57,170.76,238.63,168.74,238.63Zm38-30H189.61v5.91h14.83a3.74,3.74,0,0,1,3.75,4c0,2.07-1.25,4.08-3.7,4.08H189.61V230h17.23c5,0,5,8.06,0,8.06H186.49q-5.18,0-5.18-5.18V205.79q0-5.17,5.18-5.18h20.16a4,4,0,0,1,0,8.06Zm28.55,30.15a3.61,3.61,0,0,1-3.12-1.73l-4.94-7.15-4.95,7.1a3.88,3.88,0,0,1-3.26,1.88,4.27,4.27,0,0,1-4.18-4.08,3.75,3.75,0,0,1,.82-2.31l6.67-9.07L216.1,215a3.57,3.57,0,0,1-.82-2.16c0-2.11,2.26-3.74,4.47-3.74a3.67,3.67,0,0,1,3.12,1.63l4.32,6.19,4.22-6.09a3.87,3.87,0,0,1,3.26-1.73c2.16,0,4.32,1.58,4.32,3.65a3.75,3.75,0,0,1-.81,2.25l-6.1,8.5,6.77,9.12a3.71,3.71,0,0,1,.77,2.16A4.44,4.44,0,0,1,235.25,238.82Z"
         class="cls-2" />
    </clipPath>
    <linearGradient
       gradientUnits="userSpaceOnUse"
       y2="212"
       x2="198"
       y1="172"
       x1="198"
       id="linear-gradient-5">
      <stop
         id="stop1428"
         stop-color="#ffe690"
         offset="0.1" />
      <stop
         id="stop1430"
         stop-color="#ff9e9e"
         offset="0.9" />
    </linearGradient>
    <linearGradient
       xlink:href="#linear-gradient"
       y2="220"
       x2="82"
       y1="172"
       x1="82"
       id="linear-gradient-6" />
    <linearGradient
       inkscape:collect="always"
       xlink:href="#linear-gradient"
       id="linearGradient1510"
       gradientUnits="userSpaceOnUse"
       x1="128"
       y1="28"
       x2="128"
       y2="188" />
  </defs>
  <sodipodi:namedview
     pagecolor="#ffffff"
     bordercolor="#666666"
     borderopacity="1"
     objecttolerance="10"
     gridtolerance="10"
     guidetolerance="10"
     inkscape:pageopacity="0"
     inkscape:pageshadow="2"
     inkscape:window-width="1920"
     inkscape:window-height="1027"
     id="namedview863"
     showgrid="false"
     inkscape:zoom="13.174516"
     inkscape:cx="44.011737"
     inkscape:cy="19.67734"
     inkscape:window-x="-8"
     inkscape:window-y="-8"
     inkscape:window-maximized="1"
     inkscape:current-layer="svg861" />
  <metadata
     id="metadata851">
Created by Docfx
<rdf:RDF>
  <cc:Work
     rdf:about="">
    <dc:format>image/svg+xml</dc:format>
    <dc:type
       rdf:resource="http://purl.org/dc/dcmitype/StillImage" />
  </cc:Work>
</rdf:RDF>
</metadata>
  <g
     id="g1508"
     transform="matrix(0.67034447,0,0,0.67034447,6.8993504,31.032642)">
    <g
       data-name="Layer 1"
       id="Layer_1">
      <path
         id="path1438"
         transform="translate(-12,-28)"
         d="M 100,75.44 V 176 H 36 V 144 H 68 A 16,16 0 0 0 84,128 V 96 A 16,16 0 0 0 68,80 H 36 V 48 h 40 c 0,0 8.5,0.5 8,-8 0.5,-7.5 -8,-8 -8,-8 H 36 A 16,16 0 0 0 20,48 v 32 a 16,16 0 0 0 16,16 h 32 v 32 H 36 a 16,16 0 0 0 -16,16 v 32 a 16,16 0 0 0 16,16 h 64 a 16,16 0 0 0 16,-16 v -64 0 a 16,16 0 0 1 16,-16 v 0 a 16,16 0 0 1 16,16 v 0 64 0 a 16,16 0 0 0 16,16 h 64 a 16,16 0 0 0 16,-16 V 144 A 16,16 0 0 0 228,128 H 196 V 96 h 32 A 16,16 0 0 0 244,80 V 48 A 16,16 0 0 0 228,32 h -40 c 0,0 -8.5,0.5 -8,8 -0.5,8.5 8,8 8,8 h 40 v 32 h -32 a 16,16 0 0 0 -16,16 v 32 a 16,16 0 0 0 16,16 h 32 v 32 H 164 V 64.67 C 164,47.23 150.33,32.49 132.9,32.01 A 32,32 0 0 0 100,64 Z"
         class="cls-3"
         inkscape:connector-curvature="0"
         style="opacity:0.3;fill:url(#linear-gradient-2)" />
      <path
         id="path1440"
         transform="translate(-12,-28)"
         d="M 96,71.44 V 172 H 32 V 140 H 64 A 16,16 0 0 0 80,124 V 92 A 16,16 0 0 0 64,76 H 32 V 44 h 40 c 0,0 8.5,0.5 8,-8 0.5,-7.5 -8,-8 -8,-8 H 32 A 16,16 0 0 0 16,44 v 32 a 16,16 0 0 0 16,16 h 32 v 32 H 32 a 16,16 0 0 0 -16,16 v 32 a 16,16 0 0 0 16,16 h 64 a 16,16 0 0 0 16,-16 v -64 0 a 16,16 0 0 1 16,-16 v 0 a 16,16 0 0 1 16,16 v 0 64 0 a 16,16 0 0 0 16,16 h 64 a 16,16 0 0 0 16,-16 V 140 A 16,16 0 0 0 224,124 H 192 V 92 h 32 A 16,16 0 0 0 240,76 V 44 A 16,16 0 0 0 224,28 h -40 c 0,0 -8.5,0.5 -8,8 -0.5,8.5 8,8 8,8 h 40 v 32 h -32 a 16,16 0 0 0 -16,16 v 32 a 16,16 0 0 0 16,16 h 32 v 32 H 160 V 60.67 C 160,43.23 146.33,28.49 128.9,28.01 A 32,32 0 0 0 96,60 Z"
         class="cls-1"
         inkscape:connector-curvature="0"
         style="fill:url(#linearGradient1510)" />
      <g
         id="g1444"
         clip-path="url(#clip-path)"
         class="cls-4" />
      <g
         data-name="Layer 3"
         id="Layer_3">
        <g
           data-name="Layer 4"
           id="Layer_4">
          <path
             id="path1446"
             transform="translate(-12,-28)"
             d="m 128,72 -12,12 v 0 a 37.9,37.9 0 0 0 24,0 v 0 z"
             class="cls-5"
             inkscape:connector-curvature="0"
             style="fill:#ff9e9e" />
        </g>
        <path
           id="path1449"
           transform="translate(-12,-28)"
           d="M 125.11,72.89 122.21,70 c 0,0 -8.73,5.71 -11.57,7.72 -1.89,1.33 -2.63,4.58 -2.64,7.41 a 4.84,4.84 0 0 0 4.87,4.87 c 2.83,0 6.08,-0.75 7.41,-2.64 2,-2.84 7.72,-11.57 7.72,-11.57 z"
           class="cls-6"
           inkscape:connector-curvature="0"
           style="fill:#ffe690" />
        <path
           id="path1451"
           transform="translate(-12,-28)"
           d="m 130.89,72.89 2.9,-2.89 c 0,0 8.73,5.71 11.57,7.72 1.89,1.33 2.63,4.58 2.64,7.41 A 4.84,4.84 0 0 1 143.13,90 c -2.83,0 -6.08,-0.75 -7.41,-2.64 -2,-2.84 -7.72,-11.57 -7.72,-11.57 z"
           class="cls-6"
           inkscape:connector-curvature="0"
           style="fill:#ffe690" />
        <g
           data-name="Layer 2"
           id="Layer_2">
          <circle
             id="circle1453"
             r="8"
             cy="28"
             cx="100" />
          <circle
             id="circle1455"
             r="8"
             cy="28"
             cx="132" />
          <circle
             id="circle1457"
             r="6"
             cy="42"
             cx="116" />
        </g>
      </g>
    </g>
    <g
       data-name="Layer 5"
       id="Layer_5">
      <g
         id="g1466"
         clip-path="url(#clip-path-2)"
         class="cls-7" />
    </g>
  </g>
</svg>
